<svg width="1024" height="414" version="1.1" xml:space="preserve" xmlns="http://www.w3.org/2000/svg"><path d="m641.93 101.42c-0.69636 3.7802-1.9565 11.172-5 13.667-2.2038 1.8064-5.4529 2.3326-8 3.5-1.7947 0.82257-3.5817 2.0948-5.6667 2.1666-4.1257 0.14226-10.396-3.9533-14.333-1.8333-2.5836 1.3912-3.889 5.1366-5.3333 7.5-3.518 5.7567-7.4872 11.252-11 17-1.2894 2.11-3.6839 4.3513-3.5 7 0.31722 4.568 4.3178 5.9662 7.8333 7.3333 6.5679 2.5542 13.422 4.4418 20 7 11.182 4.3485 22.598 8.1994 34 12 4.1123 1.3708 9.6506 4.802 14 4.5 4.2945-0.29823 9.0486-2.9633 13-4.5 9.1423-3.5553 18.71-6.5701 28-9.6667 9.3032-3.101 18.972-6.0185 28-9.8333 3.5215-1.488 7.0478-4.5097 5.6667-8.8333-2.5261-7.9078-10.07-16.105-14.667-23-1.546-2.319-3.1082-6.037-6-6.8333-3.425-0.94312-8.4851 1.6215-12 2-3.8578 0.41546-13.175-3.312-15.667-6.3334-2.5626-3.1078-1.3019-9.8097-4.6667-12.333-2.3062-1.7297-8.8727-0.5-11.667-0.5h-33m-44 64-1 8-2 13 2 9 3.1667 10.667 17.833 8.5 16 5.8333 23-8.3333 8-2.5 22 8 12 2.5 31-13.667 4-19-2-22-47 16-19 6.6667-20-6-48-16.667m47 28c-2.8632 13.6-21.352 19.903-30.667 8-4.8382-6.1822-3.4934-13.16-1.3333-20l13 4.6667 19 7.3333m71-12c8.9919 14.856-8.8138 34.213-24 23.667-4.288-2.9778-6.4825-6.8614-8-11.667l32-12m-128 14-6.3333 7 2.6667 11 6.3333 22 2.8333 8.6667 9.5 4.5 28 10.833-1.8333-25-1.3333-7.6667-7.8333-3.5-18-8.6667-7.8333-3.6667-6.1667-15.5m152 0-5 15.667-26 12.167-8.5 5.1667-0.5 11-1 20 24-9.6667 12.667-5.6666 3-8.6667 6.6667-23 2.1667-10-7.5-7m-77 21.333-19 7.5-6.5 3.3334-0.5 13.833 1 13 0.5 7.8333 6.5 3.3334 21 7.5 18-7.5 6.5-3.3334 1.5-24.833 0.5-9.6667-7.5-3.5z" fill="#ff3f03"/><text transform="matrix(1.2316 0 0 1.2316 74.373 -33.474)" fill="#ff4000" font-size="192px" style="shape-inside:url(#rect12);white-space:pre" xml:space="preserve"><tspan x="35.878906" y="246.06908"><tspan>RED   T</tspan></tspan></text><text x="137.67796" y="328.74506" fill="#ff4000" font-family="'BigBlueTerm437 Nerd Font'" font-size="53.333px" xml:space="preserve"><tspan x="137.67796" y="328.74506" font-family="sans-serif" font-size="53.333px">game engine</tspan></text></svg>
